<svg xmlns="http://www.w3.org/2000/svg" viewBox="0 0 3730 458.8"><defs><style>.cls-1{fill:#ee88ad;}</style></defs><title>Asset 10</title><g id="Layer_2" data-name="Layer 2"><g id="background"><path class="cls-1" d="M3466,46.64c0-.14,0-.19,0,0Z"/><path class="cls-1" d="M0,0V186c24.78,25.44,55.08,47.26,74.1,52.6,51.41,14.43,87.38-26.05,119.5-59.88,75.23-79.25,147.8-105.7,206.23,2,21.75,40.09,39.92,79.87,84.94,98.4,59.48,24.49,94.46-16,139.72-47.65,44.81-31.35,113.71-57.93,155.2-5.21,45,57.13-21.85,123.52,3,184.36,18.69,45.78,78.14,69.66,111.06,22.69,29.45-42,1.52-102.74-9.77-146.14-8.49-32.62-25.42-79.84,9.73-102.24,52.71-33.6,99.93,47.52,153,34.76,40.91-9.84,45.63-60.64,87.68-64.83,64.48-6.42,97.3,84.83,160.63,87,97.68,3.3,128.35-164.16,235.67-137.46,90,22.38,74.54,167.66,179.26,182.54,78.08,11.1,232.94-191.05,283.18-35.42,18.21,56.41-35.72,110.47-6.28,166.45,27.85,53,99.82,54.49,117.79-6.42,16.8-56.93-84.84-218.59,10.76-233.55,54.48-8.52,90.54,63.39,146.46,35.63,43.44-21.56,37.71-70.59,96.56-53.19,53.17,15.72,88.2,84.92,147.62,81.66,52-2.85,85.3-58.13,118.9-90.8,31.15-30.29,75.29-62.17,121.08-43.39,38.22,15.67,53.19,63.37,71.76,96.33,23.24,41.23,58.46,85.38,111.4,83.74,54.33-1.68,89.76-57.09,135.82-78.6,52-24.28,123.22-14.21,135.69,51.74,11.64,61.6-51.18,128.74,9.49,181,41.82,36,93.67,8.09,101.09-42.75,6.84-46.85-20.34-95-28.67-139.88-7.92-42.66-1.65-85.93,53-80.88,56.28,5.2,90.14,71.56,146.44,23.29,35-30.06,35.33-59.71,89.78-38.34,37.29,14.64,111,94.72,158.16,64.11V0ZM3597.36,100.07l8.19-.21C3602.67,100,3599.92,100.07,3597.36,100.07Z"/></g></g></svg>