<svg xmlns="http://www.w3.org/2000/svg" viewBox="0 0 820.43 807.44"><defs><style>.cls-1{fill:#fdfff5;stroke-width:39.63px;}.cls-1,.cls-2{stroke:#fcd1df;stroke-miterlimit:10;}.cls-2{fill:#f6688b;stroke-width:1.19px;}</style></defs><title>Asset 9</title><g id="Layer_2" data-name="Layer 2"><g id="logo"><path class="cls-1" d="M703.6,88.69a131.69,131.69,0,0,0-151-25.15q-2.36-2.63-4.89-5.17a131.65,131.65,0,0,0-224.55,85.89A131.65,131.65,0,0,0,165.09,297.68,131.62,131.62,0,0,0,72.32,533.81c-.31.31-.64.59-.95.9a131.65,131.65,0,0,0,182.19,190,131.64,131.64,0,0,0,243.91-67.52,131.63,131.63,0,0,0,138.8-163.84,131.68,131.68,0,0,0,88.78-246.68A131.7,131.7,0,0,0,703.6,88.69Z"/><path class="cls-2" d="M251,347.51a53.76,53.76,0,0,1-23.19-21.18q-8.08-13.72-8.07-31.9,0-25.22,9.53-44.77t25.85-30.27a64.6,64.6,0,0,1,36.24-10.72q18.55,0,28.17,9.52t9.62,25.13q0,10.47-3.69,16.81t-10.56,6.35a11.65,11.65,0,0,1-7.56-2.23,7.89,7.89,0,0,1-2.75-6.52,41.35,41.35,0,0,1,.69-5.66,44.18,44.18,0,0,0,1-8.23q0-15.61-16.66-15.61-11.34,0-21.64,7.37t-16.66,21.7q-6.36,14.32-6.36,34,0,20.58,11.51,31.82t34,11.23a93.68,93.68,0,0,0,22.59-2.83,175.75,175.75,0,0,0,25.33-8.66,12.08,12.08,0,0,1,4.29-1,4.63,4.63,0,0,1,4.12,2.06,9.41,9.41,0,0,1,1.37,5.32q0,10.46-11.34,15.44a118.08,118.08,0,0,1-25.33,7.8,134.72,134.72,0,0,1-25,2.49Q266.08,355,251,347.51Z"/><path class="cls-2" d="M424.1,303.68a11.88,11.88,0,0,1,1.2,5.66q0,8.23-5,9.78a78.29,78.29,0,0,1-22.67,4.12q-3.26,14.41-12.88,23.07A31.72,31.72,0,0,1,363,355q-10.31,0-17.6-5a31.58,31.58,0,0,1-11.08-13.21A42.23,42.23,0,0,1,330.49,319a52.31,52.31,0,0,1,5-23.24,39.12,39.12,0,0,1,13.74-16A34.64,34.64,0,0,1,368.62,274q13.05,0,21,9T399,305.23a104.1,104.1,0,0,0,19.24-3.43,10.14,10.14,0,0,1,2.4-.34A3.75,3.75,0,0,1,424.1,303.68Zm-50.24,28.64q4-4.46,5.41-12.86a23.67,23.67,0,0,1-8.16-9.43,27.89,27.89,0,0,1-2.83-12.35,29.74,29.74,0,0,1,.52-5.49h-.86q-6.87,0-11.42,6.6T352,317.41q0,9.44,3.69,14.41t8.67,5A12.46,12.46,0,0,0,373.86,332.33Z"/><path class="cls-2" d="M548.7,317.92a10.63,10.63,0,0,1,1.29,5.66q0,6.86-3.26,10.63a73,73,0,0,1-16.14,14.92,35.41,35.41,0,0,1-20.1,5.83q-21,0-29.2-17.5a41.93,41.93,0,0,1-11.85,12.35,27.14,27.14,0,0,1-15.8,5.15q-16.32,0-24-13.29T422,305.74q0-8.4.86-18.7h-7q-5.15,0-7-1.89t-1.8-6q0-9.6,7.73-9.61H425.3a172,172,0,0,1,9.1-32.93q5.84-14.75,14.08-23.5t17.86-8.75a12.86,12.86,0,0,1,11.34,6.35q4.12,6.35,4.12,16,0,24.19-18.72,42.88h15.63a171.88,171.88,0,0,1,9.1-32.93q5.84-14.75,14.08-23.5t17.86-8.75a12.86,12.86,0,0,1,11.34,6.35q4.12,6.35,4.12,16,0,24.19-18.72,42.88h15.63a5.45,5.45,0,0,1,4,1.2q1.2,1.2,1.2,4.46,0,11.84-19.41,11.84H497.09q-.51,8.23-.52,16.81,0,17.84,4.21,25t13.31,7.2a20.52,20.52,0,0,0,13.05-4.46,104.09,104.09,0,0,0,13.4-13.38,6,6,0,0,1,4.64-2.4A4,4,0,0,1,548.7,317.92ZM467.55,331.3a42.42,42.42,0,0,0,8.76-11.83,88.8,88.8,0,0,1-.86-13.72q0-8.4.86-18.7H443.67q-.51,8.23-.52,16.81,0,17.33,3.69,24.79t10.39,7.46Q462.4,336.1,467.55,331.3ZM456,227.27a91.36,91.36,0,0,0-6,17.84,238.82,238.82,0,0,0-4.72,25.3,58.59,58.59,0,0,0,15.2-19.64q5.06-10.89,5.07-19.81,0-10.12-3.78-10.12Q459.13,220.84,456,227.27Zm53.42,0a91.28,91.28,0,0,0-6,17.84,238.83,238.83,0,0,0-4.72,25.3,58.62,58.62,0,0,0,15.2-19.64q5.06-10.89,5.07-19.81,0-10.12-3.78-10.12Q512.55,220.84,509.37,227.27Z"/><path class="cls-2" d="M627.11,303.68a11.88,11.88,0,0,1,1.2,5.66q0,8.23-5,9.78a78.29,78.29,0,0,1-22.67,4.12q-3.26,14.41-12.88,23.07A31.72,31.72,0,0,1,566,355q-10.31,0-17.6-5a31.58,31.58,0,0,1-11.08-13.21A42.23,42.23,0,0,1,533.5,319a52.31,52.31,0,0,1,5-23.24,39.12,39.12,0,0,1,13.74-16A34.64,34.64,0,0,1,571.63,274q13.05,0,21,9T602,305.23a104.1,104.1,0,0,0,19.24-3.43,10.14,10.14,0,0,1,2.4-.34A3.75,3.75,0,0,1,627.11,303.68Zm-50.24,28.64q4-4.46,5.41-12.86a23.67,23.67,0,0,1-8.16-9.43,27.89,27.89,0,0,1-2.83-12.35,29.74,29.74,0,0,1,.52-5.49h-.86q-6.87,0-11.42,6.6T555,317.41q0,9.44,3.69,14.41t8.67,5A12.46,12.46,0,0,0,576.87,332.33Z"/><path class="cls-2" d="M616.54,348.11q-2.66-6.86-2.66-22a139.48,139.48,0,0,1,6.36-42.37,12.9,12.9,0,0,1,5.07-7.29q3.52-2.32,9.88-2.31A9.7,9.7,0,0,1,640,275q1.37.86,1.37,3.26,0,2.75-2.58,12.35-1.72,6.86-2.75,12a122.55,122.55,0,0,0-1.72,12.69q5.67-14.75,12.71-24t13.83-13.21q6.78-3.94,12.45-3.94,5.5,0,8.33,2.83t2.83,8.32q0,4.46-1.89,16.81-1.72,10.46-2.75,19.81a191.35,191.35,0,0,0-1,20.84q0,6.52-2.66,9.35T667.47,355q-5.67,0-8.24-2.92t-2.58-8.75q0-6.86,2.4-22.64,2.06-13.72,2.06-17.5,0-2.74-1.89-2.74-2.23,0-6.27,5.75a92.1,92.1,0,0,0-8.24,15.18,117.84,117.84,0,0,0-6.78,19.9q-1.89,8.06-4.38,10.89T625.73,355Q619.2,355,616.54,348.11Z"/><path class="cls-2" d="M155,524.7a53.76,53.76,0,0,1-23.19-21.18q-8.08-13.72-8.07-31.9,0-25.22,9.53-44.77t25.85-30.27a64.6,64.6,0,0,1,36.24-10.72q18.55,0,28.17,9.52t9.62,25.13q0,10.47-3.69,16.81t-10.56,6.35a11.65,11.65,0,0,1-7.56-2.23,7.89,7.89,0,0,1-2.75-6.52,41.35,41.35,0,0,1,.69-5.66,44.18,44.18,0,0,0,1-8.23q0-15.61-16.66-15.61-11.34,0-21.64,7.37t-16.66,21.7q-6.36,14.32-6.36,34,0,20.58,11.51,31.82t34,11.23a93.68,93.68,0,0,0,22.59-2.83,175.75,175.75,0,0,0,25.33-8.66,12.08,12.08,0,0,1,4.29-1,4.63,4.63,0,0,1,4.12,2.06,9.41,9.41,0,0,1,1.37,5.32q0,10.46-11.34,15.44a118.08,118.08,0,0,1-25.33,7.8,134.72,134.72,0,0,1-25,2.49Q170.13,532.16,155,524.7Z"/><path class="cls-2" d="M243,524.44q-6.36-7.72-6.35-20.24a55.71,55.71,0,0,1,6.35-26,54.21,54.21,0,0,1,16.92-19.73A38.19,38.19,0,0,1,282.28,451q3.78,0,5.07,1.46a12.35,12.35,0,0,1,2.15,5.23,40.52,40.52,0,0,1,7.56-.69q8.41,0,8.42,6,0,3.6-2.58,17.15-4,19.73-3.95,27.44a6.22,6.22,0,0,0,1.29,4.12,4.16,4.16,0,0,0,3.35,1.54q3.26,0,7.9-4.2A146.66,146.66,0,0,0,324,495.45a6,6,0,0,1,4.64-2.4,4,4,0,0,1,3.52,2.06,10.62,10.62,0,0,1,1.29,5.66q0,6.86-3.26,10.63a86.58,86.58,0,0,1-14.94,14.75q-7.9,6-15.29,6a16.06,16.06,0,0,1-10.39-3.86,23.5,23.5,0,0,1-7.13-10.55q-8.93,14.41-22.5,14.41Q249.3,532.16,243,524.44Zm30.4-14.07a28.91,28.91,0,0,0,5-11.83L284.69,467a20.82,20.82,0,0,0-13.31,5.4,36.4,36.4,0,0,0-9.7,13.81,46.44,46.44,0,0,0-3.61,18.18q0,5.32,2.15,7.89a7.3,7.3,0,0,0,5.93,2.57Q269.92,514.84,273.35,510.38Z"/><path class="cls-2" d="M322.56,525.3q-2.66-6.86-2.66-22A139.48,139.48,0,0,1,326.25,461a12.9,12.9,0,0,1,5.07-7.29q3.52-2.32,9.88-2.31a9.7,9.7,0,0,1,4.81.86q1.37.86,1.37,3.26,0,2.75-2.58,12.35-1.72,6.86-2.75,12a122.55,122.55,0,0,0-1.72,12.69q5.67-14.75,12.71-24t13.83-13.21q6.78-3.94,12.45-3.94,11.16,0,11.16,11.15,0,6.69-3.78,24.19-3.26,14.92-3.26,19.73,0,6.86,5,6.86,3.43,0,8.16-4.2a137.63,137.63,0,0,0,12.62-13.64,6,6,0,0,1,4.64-2.4,4,4,0,0,1,3.52,2.06,10.63,10.63,0,0,1,1.29,5.66q0,6.86-3.26,10.63a75.91,75.91,0,0,1-15.89,14.92,33.34,33.34,0,0,1-19.32,5.83q-8.76,0-13.23-5.06t-4.47-14.67q0-4.8,2.4-17.15,2.23-10.81,2.23-14.92,0-2.74-1.89-2.74-2.23,0-6.27,5.75a92.1,92.1,0,0,0-8.24,15.18,117.84,117.84,0,0,0-6.78,19.9q-1.89,8.06-4.38,10.89t-7.81,2.83Q325.22,532.16,322.56,525.3Z"/><path class="cls-2" d="M505.82,495.11a10.62,10.62,0,0,1,1.29,5.66q0,6.86-3.26,10.63a82.85,82.85,0,0,1-15.46,14.67q-8.42,6.09-16.66,6.09-13.05,0-19.92-15.27-7.21,9.09-12.62,12.18a25,25,0,0,1-12.62,3.09,21.86,21.86,0,0,1-17.26-7.8q-6.79-7.8-6.78-20.33a56.43,56.43,0,0,1,5.84-25.47,52,52,0,0,1,16.06-19.21,46.72,46.72,0,0,1,22.93-8.83q3.26-33.27,12.45-56.86t24.13-23.58q7.38,0,12.28,6.69T501.1,397q0,19.21-9.45,44.94a333.65,333.65,0,0,1-25.25,52.83q.68,9.95,3,14.24t5.93,4.29q4.64,0,9.45-4.12a125.31,125.31,0,0,0,12.88-13.72,6,6,0,0,1,4.64-2.4A4,4,0,0,1,505.82,495.11Zm-66.73,17.07q3.26-2.66,8.24-9.86a114.27,114.27,0,0,1-1.72-20.75q0-4.12.34-13.38-9.45,2.92-15.72,12.61A38.78,38.78,0,0,0,424,502.32q0,12.52,8.59,12.52A10.34,10.34,0,0,0,439.09,512.18Zm36.41-113.72a210.92,210.92,0,0,0-5.58,30.27q-2.32,18.7-3.35,39.11Q485.81,426,485.81,400.6a35.8,35.8,0,0,0-1.12-10.12q-1.12-3.6-2.66-3.6Q478.77,386.88,475.51,398.46Z"/><path class="cls-2" d="M558.81,452.4a3.82,3.82,0,0,1,1.55,3.43q0,4.12-4.47,29.33-4,24.18-4.64,28.64-6.36,44.08-17.52,69.81T504,609.35q-8.76,0-14.26-5.4t-5.5-14.15A40.71,40.71,0,0,1,488,573.33q3.69-8.41,13.74-19.3t28.43-25l.52-3.95q1.2-6.34,2.75-18.18-3.44,12.35-9.62,18.78t-13.05,6.43q-7.73,0-12.62-7.12t-4.89-17.75a149.5,149.5,0,0,1,1.72-23.58A147.55,147.55,0,0,1,500.58,461q1.71-5.15,4.81-7.38t9.79-2.23q3.78,0,5.24,1.2a4.4,4.4,0,0,1,1.46,3.6,71.34,71.34,0,0,1-1.89,9.26q-1.72,6.35-2.75,11.49-1.38,7-2.4,13.46a69.45,69.45,0,0,0-1,10.55q0,6.52,3.61,6.52,2.58,0,6.44-5.15t8.24-15.61A208.08,208.08,0,0,0,540.6,461q1.37-5.15,4.21-7.38t8.5-2.23Q557.26,451.37,558.81,452.4ZM515.53,582.76q5.32-9.95,10.65-33.1Q512.95,560.8,507,570t-5.93,16a9.31,9.31,0,0,0,1.12,4.8,4,4,0,0,0,3.69,1.89Q510.2,592.71,515.53,582.76Z"/></g></g></svg>